<svg width="281" height="273" viewBox="0 0 281 273" fill="none" xmlns="http://www.w3.org/2000/svg">
<path fill-rule="evenodd" clip-rule="evenodd" d="M59.9158 1.35842C57.4237 -1.1337 56.1776 0.112357 54.9316 2.60448C53.6855 8.83479 52.4394 15.0651 52.4394 21.2954C43.717 27.5257 33.7485 33.756 25.0261 39.9864C21.2879 42.4785 21.2879 44.9706 23.78 48.7088C16.3036 52.447 8.82727 57.4312 2.59695 62.4155C-1.14123 64.9076 0.104829 66.1537 2.59695 68.6458C6.33514 72.384 10.0733 76.1222 13.8115 78.6143C18.7958 81.1064 23.78 81.1064 27.5182 79.8603C32.5024 76.1222 37.4867 72.384 43.717 69.8918C46.2091 67.3997 47.4552 67.3997 48.7013 69.8918C82.3449 119.734 47.4552 139.671 83.591 178.299C84.8371 209.451 86.0831 241.848 87.3292 273C92.3134 273 97.2977 273 102.282 273C104.774 244.341 107.266 215.681 111.004 187.022C120.973 185.776 129.695 183.284 137.172 178.299C167.077 158.362 206.951 145.902 220.658 198.236C235.611 208.205 249.317 218.173 264.27 228.142C264.27 243.094 264.27 258.047 264.27 273C269.254 273 274.239 273 280.469 273C280.469 254.309 280.469 235.618 280.469 215.681C271.746 206.959 258.04 196.99 246.825 175.807C245.579 154.624 244.333 133.441 246.825 117.242C255.548 108.52 263.024 103.536 271.746 103.536C275.485 96.0592 272.992 92.321 268.008 91.0749C256.794 92.321 248.071 97.3052 240.595 104.782C203.213 99.7973 168.323 93.567 120.973 82.3525C99.7898 66.1537 78.6068 28.7718 59.9158 1.35842Z" fill="#FE0CF4"/>
</svg>
