<svg width="98" height="98" viewBox="0 0 98 98" fill="none" xmlns="http://www.w3.org/2000/svg">
<g filter="url(#filter0_d)">
<path d="M91.5 17.5002C89.1 15.1002 85.9 13.7002 82.6 13.5002C82.4 10.1002 81 7.0002 78.6 4.5002C73.2 -0.899805 64.4999 -0.899805 59.0999 4.5002C54.3999 9.2002 53.8 16.3002 57.2 21.7002L21.7 57.1002C16.4 53.7002 9.09995 54.3002 4.49995 59.0002C-0.900049 64.4002 -0.900049 73.1002 4.49995 78.5002C6.89995 80.9002 10.1 82.3002 13.4 82.5002C13.6 85.9002 14.9999 89.0002 17.4 91.5002C22.8 96.9002 31.5 96.9002 36.9 91.5002C41.5 86.9002 42.2 79.6002 38.7 74.3002L74.1 38.9002C79.4 42.3002 86.7 41.7002 91.3 37.1002C96.8 31.6002 96.8 22.9002 91.5 17.5002ZM87.7 33.2002C84.4 36.5002 79.2 36.5002 75.9 33.3002C74.9 32.3002 73.2 32.3002 72.2 33.3002L33.4 72.1002C32.4 73.1002 32.4 74.8002 33.4 75.8002C36.6 79.1002 36.4999 84.3002 33.2999 87.6002C29.9999 90.9002 24.5999 90.9002 21.2999 87.6002C19.6999 86.0002 18.9 83.9002 18.9 81.7002C20.3 81.2002 21.5999 80.5002 22.7999 79.6002C22.8999 79.5002 23 79.5002 23 79.4002C23.9 78.5002 24.1 76.9002 23.2 75.9002C22.3 74.7002 20.6 74.5002 19.5 75.4002C18.3 76.3002 17 76.9002 15.5 77.1002C12.9 77.4002 10.3 76.5002 8.49995 74.7002C5.19995 71.4002 5.19995 66.0002 8.49995 62.7002C11.7 59.5002 16.9999 59.4002 20.2999 62.6002C21.2999 63.6002 23 63.6002 24 62.6002L62.6999 23.9002C63.6999 22.9002 63.6999 21.2002 62.6999 20.2002C59.4999 16.9002 59.6 11.7002 62.8 8.4002C66.1 5.1002 71.5 5.1002 74.8 8.4002C76.4 10.0002 77.2 12.1002 77.2 14.3002C75.8 14.8002 74.5 15.4002 73.4 16.3002C72.2 17.2002 72 18.9002 72.9 20.0002C73.8 21.2002 75.5 21.4002 76.6 20.5002C77.8 19.6002 79.2 19.0002 80.7 18.8002C83.3 18.5002 85.9 19.3002 87.7 21.2002C91 24.6002 91 29.9002 87.7 33.2002Z" fill="#FE0CF4"/>
<path d="M24 27.8C24.5 28.3 25.2 28.6 25.9 28.6C26.6 28.6 27.3 28.3 27.8 27.8C28.8 26.8 28.8 25.1 27.8 24L21.8 18C20.8 17 19.1 17 18 18C17 19 17 20.7 18 21.8L24 27.8Z" fill="#FE0CF4"/>
<path d="M9.29985 39.5L17.4999 41.7C17.6999 41.8 17.9999 41.8 18.1999 41.8C19.3999 41.8 20.4999 41 20.7999 39.8C21.1999 38.4 20.2999 36.9 18.8999 36.5L10.6999 34.3C9.29985 33.9 7.79985 34.8 7.39985 36.2C7.09985 37.6 7.89985 39.1 9.29985 39.5Z" fill="#FE0CF4"/>
<path d="M36.5 19.0002C36.8 20.2002 37.9 21.0002 39.1 21.0002C39.3 21.0002 39.6 21.0002 39.8 20.9002C41.2 20.5002 42.1 19.1002 41.7 17.6002L39.5 9.40023C39.1 8.00023 37.7 7.10023 36.2 7.50023C34.8 7.90023 33.9 9.30024 34.3 10.8002L36.5 19.0002Z" fill="#FE0CF4"/>
<path d="M72 68.2002C71 67.2002 69.3 67.2002 68.2 68.2002C67.2 69.2002 67.2 70.9002 68.2 72.0002L74.2 78.0002C74.7 78.5002 75.4 78.8002 76.1 78.8002C76.8 78.8002 77.5 78.5002 78 78.0002C79 77.0002 79 75.3002 78 74.2002L72 68.2002Z" fill="#FE0CF4"/>
<path d="M86.6999 56.5L78.4999 54.3C77.0999 53.9 75.5999 54.8 75.1999 56.2C74.7999 57.6 75.6999 59.1 77.0999 59.5L85.2999 61.7C85.4999 61.8 85.7999 61.8 85.9999 61.8C87.1999 61.8 88.2999 61 88.5999 59.8C88.8999 58.4 88.0999 56.9 86.6999 56.5Z" fill="#FE0CF4"/>
<path d="M59.5 77.0003C59.1 75.6003 57.7 74.7003 56.2 75.1003C54.8 75.5003 53.9 76.9003 54.3 78.4003L56.5 86.6003C56.8 87.8003 57.9 88.6003 59.1 88.6003C59.3 88.6003 59.6 88.6003 59.8 88.5003C61.2 88.1003 62.1 86.7003 61.7 85.2003L59.5 77.0003Z" fill="#FE0CF4"/>
</g>
<defs>
<filter id="filter0_d" x="0.449951" y="0.450195" width="99.0004" height="99.1" filterUnits="userSpaceOnUse" color-interpolation-filters="sRGB">
<feFlood flood-opacity="0" result="BackgroundImageFix"/>
<feColorMatrix in="SourceAlpha" type="matrix" values="0 0 0 0 0 0 0 0 0 0 0 0 0 0 0 0 0 0 127 0"/>
<feOffset dx="4" dy="4"/>
<feColorMatrix type="matrix" values="0 0 0 0 0.0541667 0 0 0 0 1 0 0 0 0 0.8865 0 0 0 1 0"/>
<feBlend mode="normal" in2="BackgroundImageFix" result="effect1_dropShadow"/>
<feBlend mode="normal" in="SourceGraphic" in2="effect1_dropShadow" result="shape"/>
</filter>
</defs>
</svg>
