<svg height='100px' width='100px'  fill="#000000" xmlns="http://www.w3.org/2000/svg" xmlns:xlink="http://www.w3.org/1999/xlink" version="1.1" x="0px" y="0px" viewBox="0 0 90 90" enable-background="new 0 0 90 90" xml:space="preserve"><g display="none"><g display="inline"><path fill="#000000" d="M82.736,30.044c-0.29-2.242-0.495-3.827-0.557-4.447c-0.161-1.627-1.161-2.975-2.221-4.403    c-1.381-1.861-2.919-3.939-3.292-7.22v-1.098c0-0.83-0.569-1.552-1.374-1.748L31.315,0.485c-0.534-0.13-1.101-0.007-1.534,0.334    c-0.433,0.34-0.686,0.861-0.686,1.413c0,4.396-1.799,6.84-3.388,8.997c-0.942,1.279-1.83,2.486-2.169,3.913    c-0.06,0.249-2.265,14.561-3.663,28.822C10.133,46.799,2.986,55.789,2.986,66.434c0,12.91,10.503,23.413,23.413,23.413    c7.69,0,14.505-3.743,18.775-9.487c7.237,1.512,13.978,2.532,16.98,2.532c0.313,0,0.572-0.015,0.8-0.038    c0.029,0.002,0.051,0.008,0.08,0.008c1.692,0,4.827-1.307,9.339-3.898c12.259-1.313,13.081-2.418,13.525-3.018l0.223-0.298    l0.085-0.365C87.567,69.476,85.217,49.154,82.736,30.044z M26.399,88.262c-12.035,0-21.828-9.792-21.828-21.828    s9.792-21.827,21.828-21.827c12.036,0,21.828,9.791,21.828,21.827S38.435,88.262,26.399,88.262z M64.84,25.589l-0.213,1.946    c-3.037,27.54-4.297,44.908-3.763,51.793c-2.988-0.114-8.134-0.966-13.692-2.138c1.679-3.225,2.641-6.879,2.641-10.757    c0-12.91-10.503-23.413-23.413-23.413c-0.974,0-1.93,0.079-2.873,0.195c1.202-12.271,2.895-24.663,3.509-27.241    c0.17-0.717,0.818-1.596,1.567-2.614c1.478-2.008,3.425-4.652,3.952-8.876l37.819,9.153c-0.304,3.476-1.889,5.644-3.315,7.567    C66.004,22.627,65.007,23.97,64.84,25.589z M71.793,66.434c0,0.497-0.402,0.899-0.9,0.899c-0.494,0-0.897-0.402-0.897-0.899    V20.373c0-0.496,0.403-0.899,0.897-0.899c0.498,0,0.9,0.403,0.9,0.899V66.434z"></path><path fill="#000000" d="M27.809,50.526c-0.716-0.671-1.836-0.645-2.519,0.059c-8.659,8.918-12.072,17.708-9.364,24.111    c1.701,4.021,5.683,6.422,10.653,6.422c4.747,0,8.593-2.561,10.289-6.849C38.995,68.888,37.732,59.824,27.809,50.526z     M21.956,74.23c-1.751,0-3.17-1.953-3.17-4.36s1.419-4.359,3.17-4.359s3.171,1.952,3.171,4.359S23.707,74.23,21.956,74.23z"></path></g></g><g display="none"><g display="inline"><path fill="#000000" d="M72.191,44.726v-30.03c0-0.725-0.463-1.369-1.15-1.599L33.535,0.541C33.023,0.37,32.468,0.452,32.03,0.76    c-0.439,0.308-0.705,0.806-0.718,1.341c-0.103,4.417-0.814,25.756-1.424,43.769C18.139,46.288,8.703,55.951,8.703,67.801    c0,12.115,9.856,21.971,21.971,21.971c5.982,0,11.405-2.409,15.371-6.301c4.667,0.91,9.615,1.309,14.191,1.645    c3.797,0.278,7.381,0.542,9.911,1.091c0.118,0.026,0.238,0.038,0.357,0.038c0.382,0,0.755-0.129,1.06-0.374    c0.396-0.32,0.627-0.803,0.627-1.313v-6.176c2.966-2.68,4.474-5.651,4.276-7.54C75.795,64.396,73.533,54.153,72.191,44.726z     M10.191,67.801c0-11.295,9.189-20.483,20.483-20.483c11.294,0,20.482,9.188,20.482,20.483c0,11.294-9.188,20.482-20.482,20.482    C19.38,88.283,10.191,79.095,10.191,67.801z M68.818,82.544c-2.429-0.359-5.317-0.571-8.335-0.793    c-3.853-0.283-7.983-0.606-11.92-1.242c2.559-3.592,4.08-7.972,4.08-12.708c0-9.716-6.345-17.964-15.102-20.855    c0.838-5.393,1.711-10.025,2.398-12.211c0.14-0.444-0.107-0.917-0.552-1.058c-0.446-0.138-0.918,0.107-1.058,0.552    c-0.691,2.201-1.569,6.844-2.415,12.26c-0.867-0.213-1.75-0.386-2.656-0.491c0.411-12.153,0.869-25.818,1.155-34.794    l34.403,10.996V82.544z"></path><path fill="#000000" d="M31.997,52.872c-0.672-0.629-1.725-0.604-2.364,0.056c-8.126,8.368-11.328,16.616-8.787,22.627    c1.595,3.773,5.333,6.025,9.997,6.025c4.454,0,8.063-2.402,9.654-6.427C42.493,70.103,41.309,61.599,31.997,52.872z     M26.504,75.117c-1.644,0-2.975-1.833-2.975-4.092s1.331-4.091,2.975-4.091c1.642,0,2.976,1.832,2.976,4.091    S28.146,75.117,26.504,75.117z"></path></g></g><g display="none"><g display="inline"><path fill="#000000" d="M78.629,32.161c-0.327-2.372-0.554-4.047-0.624-4.704c-0.18-1.722-1.298-3.148-2.482-4.659    c-1.545-1.969-3.267-4.169-3.682-7.641v-1.161c0-0.878-0.638-1.643-1.538-1.849L21.115,0.884    c-0.597-0.137-1.231-0.008-1.716,0.354c-0.485,0.36-0.767,0.912-0.767,1.495c0,4.65-2.013,7.237-3.79,9.52    c-1.052,1.353-2.046,2.63-2.426,4.141c-0.125,0.495-8.764,53.678-3.849,60.049c3.607,4.812,38.581,11.64,47.037,11.64    c0.354,0,0.646-0.016,0.904-0.04c0.029,0,0.052,0.012,0.083,0.012c1.894,0,5.4-1.387,10.445-4.125    c13.709-1.391,14.631-2.563,15.128-3.196l0.249-0.314l0.096-0.387C84.031,73.888,81.403,52.384,78.629,32.161z M58.61,27.449    l-0.236,2.054c-3.397,29.143-4.807,47.518-4.211,54.809c-9.705-0.339-39.854-7.297-42.256-9.986    c-0.013-0.021-0.102-0.137-0.115-0.157c-3.065-4.302,3.162-51.429,4.537-56.895c0.19-0.759,0.915-1.689,1.753-2.766    c1.653-2.125,3.831-4.922,4.419-9.393L64.8,14.801c-0.339,3.679-2.111,5.972-3.709,8.007    C59.914,24.314,58.799,25.735,58.61,27.449z M66.388,70.67c0,0.527-0.45,0.954-1.005,0.954c-0.556,0-1.005-0.427-1.005-0.954    V21.928c0-0.525,0.449-0.951,1.005-0.951c0.555,0,1.005,0.426,1.005,0.951V70.67z"></path></g></g><g display="none"><path display="inline" fill="#000000" d="M66.748,72.179c-0.701-6.535-3.063-16.913-4.462-26.471v-30.44   c0-0.735-0.483-1.388-1.2-1.621L21.945,0.919c-0.534-0.173-1.113-0.09-1.571,0.223c-0.458,0.311-0.736,0.816-0.749,1.359   c-0.191,7.988-2.403,70.565-2.424,71.196c-0.031,0.833,0.561,1.563,1.399,1.734c1.373,0.277,1.598,0.707,2.202,1.861   c0.852,1.62,2.016,3.841,6.522,5.611c6.678,2.618,15.075,3.216,22.487,3.743c3.961,0.282,7.703,0.551,10.343,1.107   c0.123,0.023,0.249,0.038,0.373,0.038c0.398,0,0.789-0.133,1.105-0.38c0.413-0.324,0.654-0.813,0.654-1.331v-6.259   C65.381,77.106,66.955,74.091,66.748,72.179z M50.067,83.235c-7.153-0.509-15.26-1.087-21.424-3.505   c-3.285-1.29-4.007-2.662-4.703-3.993c-0.233-0.442-0.488-0.919-0.826-1.385c0.215-8.756,3.577-32.785,5.516-38.773   c0.146-0.451-0.112-0.93-0.576-1.072c-0.465-0.143-0.958,0.107-1.104,0.56c-1.86,5.751-5.015,27.885-5.532,37.764   c-0.2-0.115-0.417-0.221-0.652-0.318c0.256-7.271,1.516-43.063,2.098-60.784l35.903,11.146V84.04   C56.23,83.675,53.217,83.463,50.067,83.235z"></path></g><g display="none"><g display="inline"><circle fill="#000000" cx="46.854" cy="68.404" r="1.916"></circle><circle fill="#000000" cx="56.327" cy="67.461" r="1.916"></circle><path fill="#000000" d="M59.64,75.69c-0.469,0.124-0.748,0.604-0.623,1.073c0.143,0.542-0.572,1.457-1.746,1.868    c-0.662,0.234-2.215,0.524-3.221-1.113l1.684-3.575c0.135-0.281,0.107-0.609-0.066-0.865c-0.172-0.257-0.459-0.394-0.777-0.388    l-4.951,0.277c-0.324,0.018-0.614,0.215-0.748,0.511c-0.137,0.295-0.098,0.642,0.101,0.9l2.741,3.578    c-0.291,0.603-1.634,1.582-3.113,1.673c-1.4,0.091-2.224-0.703-2.426-2.349c-0.061-0.481-0.49-0.824-0.98-0.764    c-0.481,0.059-0.823,0.497-0.763,0.979c0.303,2.462,1.773,3.897,3.958,3.897c0.104,0,0.212-0.005,0.319-0.011    c0.813-0.05,1.689-0.312,2.469-0.715c0.24,2.007,1.209,3.35,2.295,3.132c1.283-0.256,1.521-1.845,1.328-3.367    c0.363,0.093,0.73,0.138,1.092,0.138c0.576,0,1.137-0.105,1.641-0.281c1.76-0.618,3.311-2.274,2.861-3.976    C60.589,75.845,60.108,75.569,59.64,75.69z"></path><path fill="#000000" d="M85.45,17.994c-1.678-3.48-5.137-5.621-8.613-5.281c0.195-2.005-0.391-3.997-1.709-5.722    c-1.816-2.38-4.766-3.858-7.695-3.858c-1.949,0-3.795,0.649-5.334,1.876c-4.355,3.467-5.564,7.498-4.111,13.832l-0.023,0.023    c-0.709-0.843-1.814-1.504-2.861-1.979c0.355-1.791,0.518-4-0.436-5.27c-0.584-0.778-1.434-1.153-2.115-1.333    c-0.619-1.059-1.576-2.558-2.359-3.161c-1.352-1.047-2.841-1.983-4.419-2.784c-1.325-0.675-3.385-0.067-4.891,0.703    c-1.77-3.172-2.982-3.361-3.42-3.429c-1.377-0.219-3.646,0.273-4.931,0.573c-0.905-0.688-2.004-1.34-2.951-1.375    c-2.04-0.071-3.991-0.016-5.764,0.174c-0.472,0.051-1.255,0.135-2.428,2.062c-0.812-0.697-1.578-1.049-2.289-1.049    c-0.186,0-0.523,0.053-0.7,0.111c-1.791,0.587-4.07,3.036-5.091,4.215c-1.085,0.399-3.489,1.461-4.651,3.374    c-0.685,1.129-0.279,2.425,0.353,3.489c-1.188,1.208-1.742,2.31-1.651,3.284c0.128,1.368,0.438,2.83,0.922,4.344    c0.564,1.771,2.504,3.717,3.844,4.9c-0.419,0.88-0.62,1.849-0.216,2.72c0.394,0.849,0.637,1.569,0.788,2.185    c-2.801,1.418-4.499,3.174-4.499,5.296V79.23c0,6.794,17.25,9.889,33.278,9.889c16.028,0,33.276-3.095,33.276-9.889V35.916    c0-1.545-0.898-2.896-2.465-4.065c1.092,0.184,2.123,0.308,3.055,0.308c3.77,0,6.607-1.452,9.197-4.708    C86.673,24.771,87.015,21.236,85.45,17.994z M11.627,19.747c-0.374-1.173-0.624-2.294-0.743-3.335    c0.24-0.375,0.936-1.091,1.586-1.62c0.37-0.301,0.601-0.741,0.641-1.216c0.041-0.474-0.114-0.947-0.428-1.306    c-0.291-0.333-0.599-0.781-0.762-1.092c0.714-0.777,2.106-1.419,2.917-1.667c0.329-0.099,0.622-0.292,0.842-0.557    c1.027-1.23,2.501-2.693,3.376-3.276c0.373,0.33,0.91,0.928,1.321,1.485c0.372,0.506,0.982,0.778,1.609,0.705    c0.623-0.069,1.162-0.464,1.414-1.039c0.402-0.916,0.95-1.932,1.282-2.402c1.444-0.129,3.021-0.165,4.66-0.112    c0.247,0.099,0.764,0.437,1.236,0.804c0.334,0.442,0.873,0.722,1.442,0.722c0.303,0,0.579-0.065,1.244-0.221    c0.91-0.212,2.452-0.537,3.407-0.558c0.446,0.472,1.295,1.883,1.897,3.179c0.218,0.468,0.63,0.816,1.128,0.953    c0.498,0.135,1.028,0.048,1.455-0.242c0.994-0.677,2.461-1.4,3.135-1.432c1.345,0.689,2.609,1.49,3.748,2.37    c0.313,0.271,1.184,1.592,1.861,2.826c0.297,0.538,0.854,0.883,1.467,0.908c0.086,0.004,0.328,0.052,0.469,0.111    c0.135,0.61-0.082,2.312-0.486,3.743c-0.252,0.897,0.24,1.837,1.123,2.139c1.08,0.372,2.307,1.001,2.725,1.387    c-0.043,0.229-0.17,0.581-0.336,0.966l-8.704,8.704l-29.761,2.053c0.102-1.335-0.13-3.118-1.131-5.404    c0.113-0.251,0.342-0.634,0.555-0.915c0.586-0.766,0.444-1.862-0.317-2.454C14.142,22.901,11.974,20.836,11.627,19.747z     M64.319,83.02c-5.031,1.42-12.713,2.588-22.845,2.588c-2.045,0-3.97-0.057-5.817-0.144V61.145    c-0.056-3.052,0.292-8.341,1.464-9.536c0.051-0.051,0.092-0.083,0.124-0.1c0.816,0.645,3.06,4.655,5.131,10.225    c0.114,0.305,0.386,0.523,0.709,0.565c4.878,0.637,10.479-0.372,14.982-1.185l1.719-0.307c0.398-0.069,0.697-0.401,0.725-0.805    c0.354-5.091,1.531-9.889,2.557-10.581c0.641,1.07,1.156,5.779,1.25,9.808V83.02z M66.077,82.478V59.21    c-0.07-2.95-0.402-9.955-1.998-11.287c-0.316-0.267-0.709-0.38-1.088-0.319c-2.898,0.452-3.869,7.783-4.178,11.595l-1.057,0.188    c-4.221,0.763-9.434,1.703-13.923,1.232c-1.022-2.679-4.33-10.893-6.498-10.893c-0.378,0-0.938,0.113-1.467,0.653    c-2.026,2.063-1.994,9.357-1.967,10.782v24.207c-14.411-0.91-22.193-4.277-22.193-6.138V40.677    c5.856,3.493,18.129,5.126,29.766,5.126c11.636,0,23.909-1.633,29.765-5.126V79.23C71.239,80.114,69.46,81.338,66.077,82.478z     M83.165,26.357c-2.258,2.835-4.598,4.045-7.824,4.045c-1.352,0-2.889-0.217-4.699-0.662c-0.295-0.075-0.613,0.015-0.83,0.231    l-7.006,7.005c-0.809,0.238-3.982,1.118-7.939,1.538c-2.387,0.255-4.852,0.383-7.329,0.383h-0.002c-2.912,0-5.289-0.18-6.79-0.333    l18.83-18.829c0.219-0.217,0.307-0.532,0.232-0.831c-1.475-5.992-0.557-9.386,3.383-12.522c1.229-0.977,2.695-1.494,4.242-1.494    c2.395,0,4.809,1.214,6.301,3.167c1.172,1.535,1.578,3.325,1.229,5.085c-1.492,0.473-2.563,1.12-3.422,2.58    c-0.246,0.418-0.107,0.957,0.311,1.203c0.139,0.083,0.293,0.121,0.445,0.121c0.301,0,0.592-0.155,0.758-0.432    c0.682-1.16,1.51-1.557,2.996-1.961c0.016-0.004,0.023-0.015,0.037-0.019c3.037-0.765,6.27,0.984,7.781,4.124    C85.132,21.376,84.868,24.218,83.165,26.357z"></path></g></g><g><path fill="#000000" d="M86.594,28.805c0.004-0.167,0.017-0.338-0.027-0.509l-1.884-7.351c-0.007-0.019-0.022-0.035-0.028-0.054   c-0.183-0.572-0.402-1.141-0.671-1.701c-2.026-4.202-6.038-6.955-10.296-6.867c0.024-2.314-0.746-4.581-2.269-6.572   c-2.341-3.066-6.142-4.97-9.919-4.97c-2.535,0-4.932,0.844-6.933,2.438c-5.44,4.331-7.024,9.329-5.337,17.081L22.658,46.876   c-1.992-0.437-3.751-0.648-5.354-0.648c-4.753,0-8.48,1.903-11.73,5.987c-2.306,2.893-2.977,6.551-1.979,10.116   c0.011,0.076-0.007,0.149,0.012,0.222l1.309,5.103c0.185,1.186,0.536,2.374,1.094,3.531c2.027,4.202,6.076,6.918,10.297,6.867   c-0.024,2.314,0.748,4.581,2.268,6.572c2.341,3.066,6.142,4.97,9.919,4.97h0.001c2.534,0,4.932-0.844,6.933-2.438   c5.44-4.331,7.021-9.329,5.335-17.088l26.573-26.568c1.991,0.433,3.753,0.648,5.355,0.648c4.751,0,8.479-1.903,11.73-5.984   C86.563,35.476,87.297,32.125,86.594,28.805z M8.445,54.501c2.567-3.225,5.216-4.604,8.859-4.604c1.57,0,3.367,0.257,5.494,0.778   c0.623,0.151,1.281-0.028,1.735-0.484l28.014-28.013c0.454-0.455,0.637-1.113,0.483-1.739c-1.72-6.98-0.717-10.733,3.822-14.349   c1.364-1.084,2.928-1.638,4.647-1.638c2.659,0,5.341,1.353,7.002,3.525c1.384,1.812,1.837,3.942,1.276,6   c-0.095,0.348-0.074,0.705,0.029,1.037c-1.343,0.544-2.37,1.312-3.218,2.753c-0.258,0.437-0.11,0.999,0.325,1.255   c0.146,0.088,0.307,0.129,0.465,0.129c0.313,0,0.62-0.164,0.791-0.455c0.847-1.435,1.912-1.947,3.709-2.434   c0.012-0.003,0.02-0.013,0.03-0.016c0.04-0.009,0.081-0.006,0.12-0.016c3.364-0.923,6.952,1.037,8.646,4.552   c1.395,2.893,1.109,6.022-0.759,8.372c-2.566,3.225-5.216,4.6-8.858,4.6c-1.57,0-3.368-0.253-5.494-0.778   c-0.621-0.155-1.282,0.032-1.735,0.484L35.815,61.475c-0.454,0.452-0.637,1.113-0.485,1.735c1.72,6.984,0.719,10.739-3.82,14.354   c-1.366,1.088-2.929,1.638-4.647,1.638c-2.659,0-5.341-1.35-7.002-3.524c-1.383-1.813-1.837-3.943-1.275-6.001   c0.02-0.073,0.019-0.146,0.029-0.219c0.713-1.985,2.508-3.449,3.322-3.715c0.482-0.154,0.747-0.67,0.591-1.153   c-0.156-0.483-0.672-0.756-1.155-0.591c-1.21,0.392-2.816,1.757-3.846,3.509c-0.225-0.095-0.466-0.148-0.712-0.148   c-0.161,0-0.324,0.021-0.484,0.066c-3.359,0.916-6.95-1.037-8.646-4.556C6.291,59.977,6.574,56.847,8.445,54.501z"></path></g></svg>