<svg height='100px' width='100px'  fill="#000000" xmlns:x="http://ns.adobe.com/Extensibility/1.0/" xmlns:i="http://ns.adobe.com/AdobeIllustrator/10.0/" xmlns:graph="http://ns.adobe.com/Graphs/1.0/" xmlns="http://www.w3.org/2000/svg" xmlns:xlink="http://www.w3.org/1999/xlink" version="1.1" x="0px" y="0px" viewBox="0 0 100 100" style="enable-background:new 0 0 100 100;" xml:space="preserve"><g><g i:extraneous="self"><g><path d="M93.5,19.5c-2.4-2.4-5.6-3.8-8.9-4c-0.2-3.4-1.6-6.5-4-9c-5.4-5.4-14.1-5.4-19.5,0c-4.7,4.7-5.3,11.8-1.9,17.2L23.7,59.1     c-5.3-3.4-12.6-2.8-17.2,1.9c-5.4,5.4-5.4,14.1,0,19.5c2.4,2.4,5.6,3.8,8.9,4c0.2,3.4,1.6,6.5,4,9c5.4,5.4,14.1,5.4,19.5,0     c4.6-4.6,5.3-11.9,1.8-17.2l35.4-35.4c5.3,3.4,12.6,2.8,17.2-1.8C98.8,33.6,98.8,24.9,93.5,19.5z M89.7,35.2     c-3.3,3.3-8.5,3.3-11.8,0.1c-1-1-2.7-1-3.7,0L35.4,74.1c-1,1-1,2.7,0,3.7c3.2,3.3,3.1,8.5-0.1,11.8c-3.3,3.3-8.7,3.3-12,0     c-1.6-1.6-2.4-3.7-2.4-5.9c1.4-0.5,2.7-1.2,3.9-2.1c0.1-0.1,0.2-0.1,0.2-0.2c0.9-0.9,1.1-2.5,0.2-3.5c-0.9-1.2-2.6-1.4-3.7-0.5     c-1.2,0.9-2.5,1.5-4,1.7c-2.6,0.3-5.2-0.6-7-2.4c-3.3-3.3-3.3-8.7,0-12c3.2-3.2,8.5-3.3,11.8-0.1c1,1,2.7,1,3.7,0l38.7-38.7     c1-1,1-2.7,0-3.7c-3.2-3.3-3.1-8.5,0.1-11.8c3.3-3.3,8.7-3.3,12,0c1.6,1.6,2.4,3.7,2.4,5.9c-1.4,0.5-2.7,1.1-3.8,2     c-1.2,0.9-1.4,2.6-0.5,3.7c0.9,1.2,2.6,1.4,3.7,0.5c1.2-0.9,2.6-1.5,4.1-1.7c2.6-0.3,5.2,0.5,7,2.4C93,26.6,93,31.9,89.7,35.2z"></path><path d="M26,29.8c0.5,0.5,1.2,0.8,1.9,0.8s1.4-0.3,1.9-0.8c1-1,1-2.7,0-3.8l-6-6c-1-1-2.7-1-3.8,0c-1,1-1,2.7,0,3.8L26,29.8z"></path><path d="M11.3,41.5l8.2,2.2c0.2,0.1,0.5,0.1,0.7,0.1c1.2,0,2.3-0.8,2.6-2c0.4-1.4-0.5-2.9-1.9-3.3l-8.2-2.2     c-1.4-0.4-2.9,0.5-3.3,1.9C9.1,39.6,9.9,41.1,11.3,41.5z"></path><path d="M38.5,21c0.3,1.2,1.4,2,2.6,2c0.2,0,0.5,0,0.7-0.1c1.4-0.4,2.3-1.8,1.9-3.3l-2.2-8.2c-0.4-1.4-1.8-2.3-3.3-1.9     c-1.4,0.4-2.3,1.8-1.9,3.3L38.5,21z"></path><path d="M74,70.2c-1-1-2.7-1-3.8,0c-1,1-1,2.7,0,3.8l6,6c0.5,0.5,1.2,0.8,1.9,0.8c0.7,0,1.4-0.3,1.9-0.8c1-1,1-2.7,0-3.8L74,70.2     z"></path><path d="M88.7,58.5l-8.2-2.2c-1.4-0.4-2.9,0.5-3.3,1.9c-0.4,1.4,0.5,2.9,1.9,3.3l8.2,2.2c0.2,0.1,0.5,0.1,0.7,0.1     c1.2,0,2.3-0.8,2.6-2C90.9,60.4,90.1,58.9,88.7,58.5z"></path><path d="M61.5,79c-0.4-1.4-1.8-2.3-3.3-1.9c-1.4,0.4-2.3,1.8-1.9,3.3l2.2,8.2c0.3,1.2,1.4,2,2.6,2c0.2,0,0.5,0,0.7-0.1     c1.4-0.4,2.3-1.8,1.9-3.3L61.5,79z"></path></g></g></g></svg>