<svg width="10" height="10" viewBox="0 0 10 10" fill="none" xmlns="http://www.w3.org/2000/svg">
<g clip-path="url(#clip0)">
<path d="M0.416667 0.416667H1.25V0H0V1.25H0.416667V0.416667Z" fill="#FE0CF4"/>
<path d="M1.25 9.58333H0.416667V8.75H0V10H1.25V9.58333Z" fill="#FE0CF4"/>
<path d="M0.416667 2.08301H0V2.91634H0.416667V2.08301Z" fill="#FE0CF4"/>
<path d="M0.416667 3.75H0V4.58333H0.416667V3.75Z" fill="#FE0CF4"/>
<path d="M0.416667 5.41699H0V6.25032H0.416667V5.41699Z" fill="#FE0CF4"/>
<path d="M0.416667 7.08301H0V7.91634H0.416667V7.08301Z" fill="#FE0CF4"/>
<path d="M9.58333 9.58333H8.75V10H10V8.75H9.58333V9.58333Z" fill="#FE0CF4"/>
<path d="M8.75 0.416667H9.58333V1.25H10V0H8.75V0.416667Z" fill="#FE0CF4"/>
<path d="M10.0002 7.08301H9.5835V7.91634H10.0002V7.08301Z" fill="#FE0CF4"/>
<path d="M10.0002 5.41699H9.5835V6.25032H10.0002V5.41699Z" fill="#FE0CF4"/>
<path d="M10.0002 3.75H9.5835V4.58333H10.0002V3.75Z" fill="#FE0CF4"/>
<path d="M10.0002 2.08301H9.5835V2.91634H10.0002V2.08301Z" fill="#FE0CF4"/>
<path d="M7.91683 0H7.0835V0.416667H7.91683V0Z" fill="#FE0CF4"/>
<path d="M6.24984 0H5.4165V0.416667H6.24984V0Z" fill="#FE0CF4"/>
<path d="M4.58333 0H3.75V0.416667H4.58333V0Z" fill="#FE0CF4"/>
<path d="M2.91683 0H2.0835V0.416667H2.91683V0Z" fill="#FE0CF4"/>
<path d="M2.91683 9.58301H2.0835V9.99967H2.91683V9.58301Z" fill="#FE0CF4"/>
<path d="M4.58333 9.58301H3.75V9.99967H4.58333V9.58301Z" fill="#FE0CF4"/>
<path d="M6.24984 9.58301H5.4165V9.99967H6.24984V9.58301Z" fill="#FE0CF4"/>
<path d="M7.91683 9.58301H7.0835V9.99967H7.91683V9.58301Z" fill="#FE0CF4"/>
</g>
<defs>
<clipPath id="clip0">
<rect width="10" height="10" fill="white"/>
</clipPath>
</defs>
</svg>
