<svg width="190" height="187" viewBox="0 0 190 187" fill="none" xmlns="http://www.w3.org/2000/svg">
<path d="M172.459 45.7673C166.31 32.8513 153.452 23.8664 138.079 23.8664C119.631 23.8664 104.537 37.0631 100.904 54.4715L128.016 59.2447H100.065H94.475H83.0151C83.0151 59.2447 74.0707 57.8408 74.0707 50.2598C74.0707 33.6937 67.9214 17.97 50.8712 10.3889L47.7965 1.4039C47.2375 0.561561 46.6785 0 46.1195 0C45.5604 0 44.7219 0.561561 44.4424 1.4039L42.4858 8.14265C42.2063 8.14265 41.6473 8.14265 41.3678 8.14265C40.5292 8.14265 37.1751 8.14264 36.3366 8.42342C35.7775 8.42342 38.8522 7.3003 40.5292 7.01952L39.1317 1.4039C38.5726 0.561561 38.0136 0 37.4546 0C36.8956 0 36.057 0.561561 35.7775 1.4039L33.5414 8.7042C20.1249 10.6697 17.6093 17.97 17.0502 20.7778C17.6093 21.3393 18.7273 22.1817 18.7273 22.1817H16.7707H16.2117H0C0 22.1817 0 26.1126 0 28.6396C0 33.1321 5.86975 35.6592 10.3419 37.9054H1.11805C1.11805 37.9054 1.99923e-06 49.4174 10.3419 50.5405H17.0502C17.0502 50.5405 13.4166 51.6637 11.1805 52.506C8.66487 56.9985 2.2361 69.0721 2.2361 81.7072C2.2361 108.101 10.901 123.263 25.9946 138.425C38.2931 150.498 32.1439 168.468 29.3488 175.207C29.3488 175.488 29.0692 175.769 29.0692 176.05C29.6283 176.611 30.4668 177.173 31.3053 177.453C31.8644 177.734 32.1439 177.734 32.1439 177.734H31.0258H27.9512C26.2741 177.734 19.8453 178.296 19.8453 186.438H46.399C46.399 186.438 57.5795 169.592 58.418 143.76C58.418 139.267 56.4614 133.652 56.4614 133.652C57.859 134.775 59.536 137.583 60.6541 140.39C63.7287 140.39 69.5985 139.829 77.1453 139.267C86.6487 138.425 98.6677 136.74 109.569 134.213C110.128 134.213 110.687 133.932 111.246 133.932C111.805 133.932 112.364 133.652 112.923 133.652C119.072 131.967 124.383 130.001 128.855 127.755C129.694 127.194 130.253 126.913 131.091 126.351C131.371 126.071 131.65 125.79 132.209 125.79C132.209 125.79 132.489 126.071 133.327 126.351C133.886 126.632 134.445 127.194 135.284 127.755C140.595 131.405 151.216 139.548 158.763 150.498C159.322 151.06 159.601 151.902 159.881 152.464C160.44 153.026 160.719 153.868 160.999 154.71C164.912 161.73 167.148 169.311 166.03 177.734C165.192 177.734 159.042 178.015 159.042 187H185.037C185.037 187 188.671 182.227 188.671 161.73C188.671 141.514 191.466 119.893 188.95 99.3964C184.757 65.1411 173.297 47.4519 172.459 45.7673Z" fill="#FE0CF4"/>
</svg>
