<svg height='100px' width='100px'  fill="#000000" xmlns="http://www.w3.org/2000/svg" xmlns:xlink="http://www.w3.org/1999/xlink" viewBox="0 0 18 18" version="1.1" x="0px" y="0px"><title>New Adjustment Copy</title><desc>Created with Sketch.</desc><g stroke="none" stroke-width="1" fill="none" fill-rule="evenodd"><g transform="translate(-118.000000, -159.000000)" fill-rule="nonzero" fill="#000000"><g transform="translate(118.000000, 159.000000)"><path d="M9,7.58578644 L10.4163136,6.16947287 C10.8056781,5.78010838 11.4351802,5.77832592 11.8284271,6.17157288 C12.2189514,6.56209717 12.2151889,7.1990247 11.8305271,7.58368643 L10.4142136,9 L11.8305271,10.4163136 C12.2198916,10.8056781 12.2216741,11.4351802 11.8284271,11.8284271 C11.4379028,12.2189514 10.8009753,12.2151889 10.4163136,11.8305271 L9,10.4142136 L7.58368643,11.8305271 C7.19432194,12.2198916 6.56481983,12.2216741 6.17157288,11.8284271 C5.78104858,11.4379028 5.78481114,10.8009753 6.16947287,10.4163136 L7.58578644,9 L6.16947287,7.58368643 C5.78010838,7.19432194 5.77832592,6.56481983 6.17157288,6.17157288 C6.56209717,5.78104858 7.1990247,5.78481114 7.58368643,6.16947287 L9,7.58578644 Z M9,18 C4.02943725,18 0,13.9705627 0,9 C0,4.02943725 4.02943725,0 9,0 C13.9705627,0 18,4.02943725 18,9 C18,13.9705627 13.9705627,18 9,18 Z M9,16 C12.8659932,16 16,12.8659932 16,9 C16,5.13400675 12.8659932,2 9,2 C5.13400675,2 2,5.13400675 2,9 C2,12.8659932 5.13400675,16 9,16 Z"></path></g></g></g></svg>