<svg height='100px' width='100px'  fill="#000000" xmlns="http://www.w3.org/2000/svg" xmlns:xlink="http://www.w3.org/1999/xlink" viewBox="0 0 18 18" version="1.1" x="0px" y="0px"><title>User Approved</title><desc>Created with Sketch.</desc><g stroke="none" stroke-width="1" fill="none" fill-rule="evenodd"><g transform="translate(-68.000000, -159.000000)"><g transform="translate(68.000000, 159.000000)"><path d="M9,16 C5.1395,16 2,12.8605 2,9 C2,5.1395 5.1395,2 9,2 C12.8605,2 16,5.1395 16,9 C16,12.8605 12.8605,16 9,16 M8.03602817,12.2798107 C8.29120056,12.2798278 8.5458809,12.1820412 8.74054068,11.9873814 L12.9873814,7.74054068 C13.3720431,7.35587895 13.3758057,6.71895142 12.9852814,6.32842712 C12.5920344,5.93518017 11.9625323,5.93696263 11.5731678,6.32632712 L8.03553391,9.86396103 L6.62118422,8.44961134 C6.22796861,8.05639574 5.59763107,8.05922318 5.20710678,8.44974747 C4.81385983,8.84299442 4.81652154,9.47337579 5.20697066,9.86382491 L7.32856325,11.9854175 C7.52481864,12.1816729 7.78014219,12.2792721 8.03523701,12.2792529 Z M9,-7.10542736e-15 C13.97025,-7.10542736e-15 18,4.02975 18,9 C18,13.97025 13.97025,18 9,18 C4.02975,18 5.68434189e-14,13.97025 5.68434189e-14,9 C5.68434189e-14,4.02975 4.02975,-7.10542736e-15 9,-7.10542736e-15 Z" fill="#000000"></path></g></g></g></svg>