<svg width="253" height="144" viewBox="0 0 253 144" fill="none" xmlns="http://www.w3.org/2000/svg">
<path d="M0.467032 16.8429C1.20719 15.8756 4.10896 15.0233 6.04347 14.4514C7.98079 13.885 10.8265 13.428 12.761 12.6318C14.6955 11.8356 27.0455 9.84499 28.753 7.79553C30.4604 5.74887 30.6398 4.462 31.4865 3.9265C32.7369 3.81155 33.0818 3.81156 33.9902 3.13027C34.9013 2.44618 38.0863 1.48173 40.8198 0.797642C43.5534 0.116358 55.3315 -1.36396 63.8685 3.03215C75.6494 7.0021 73.2019 17.6419 74.5672 19.2344C75.9326 20.8269 88.1116 46.0961 87.6546 47.1194C88.064 47.7446 98.0029 52.0706 98.8075 52.1267C100.061 51.6725 116.908 53.4921 123.847 54.6331C130.789 55.7714 164.85 51.8575 170.401 51.3305C176.23 50.7781 198.97 51.2239 206.136 51.6753C224.741 52.8416 229.101 53.6098 239.088 64.6197C245.917 75.8034 241.308 91.5094 239.374 93.2168C238.605 94.9215 240.851 99.3961 243.501 100.843C247.131 101.849 251.326 102.721 252.007 106.534C252.523 110.176 246.775 119.507 247.344 123.036C247.367 125.394 245.976 129.409 247.229 130.435C248.48 131.461 248.427 134.307 246.374 135.557C245.015 136.469 244.44 138.975 242.107 138.176C239.831 137.209 233.797 139.429 233.458 137.834C233.113 136.242 233.752 141.964 231.523 141.936C228.762 143.012 226.631 143.629 221.279 142.614C217.836 142.729 213.611 142.942 215.475 138.176C220.94 133.965 221.256 132.998 223.642 131.974C226.034 130.951 227.657 119.851 226.286 118.94C225.008 116.524 221.464 111.746 218.663 110.294C215.831 108.968 208.573 101.928 202.155 99.2531C188.045 93.7888 171.694 99.1718 156.518 107.563C146.116 113.316 123.508 119.058 113.65 120.922C112.585 120.765 112.086 122.949 112.585 124.295C113.891 126.855 113.325 129.928 111.786 129.754C110.249 129.53 109.624 130.822 109.806 132.316C110.605 134.596 110.653 141.336 109.058 142.244C105.923 142.617 97.5571 143.713 92.432 142.732C89.8723 142.777 88.2939 140.514 89.9985 137.652C90.2228 137.105 90.8956 135.857 92.5161 136.113C95.202 135.171 98.4683 134.069 100.285 134.649C101.132 132.953 101.056 127.668 100.854 126.911C99.3767 126 97.8431 122.61 97.0861 122.159C95.0787 123.014 96.444 132.743 93.5815 131.551C91.3639 130.567 90.8788 130.612 90.0826 131.977C89.2835 133.34 89.8275 136.37 86.1687 140.34C82.7399 139.917 69.1674 143.13 67.0339 137.781C66.5208 137.013 70.9449 133.794 73.2215 134.024C76.8943 129.841 78.2596 133.085 80.2502 131.234C82.6417 128.274 84.0211 126.555 83.166 124.121C82.4847 121.859 81.282 118.73 81.7277 117.463C77.7466 115.758 55.1941 104.765 49.4046 92.5384C47.1 87.9264 50.8288 81.0995 48.8354 72.7334C48.7794 62.2619 45.3337 46.3848 46.1047 43.7074C43.1468 45.7568 41.6665 46.7241 39.9591 43.2532C39.5021 40.6374 34.6967 36.0058 33.0734 35.2291C28.3156 32.9554 16.3889 34.0012 15.0319 33.5806C5.64816 30.6676 5.46312 26.8715 2.85293 24.9314C0.817488 23.4062 -0.845071 19.7446 0.467032 16.8429Z" fill="#FE0CF4"/>
<path d="M222.908 111.611L222.608 114.149L222.591 113.728C222.565 114.022 222.515 114.625 222.456 115.436L222.436 115.707V115.71C222.324 117.314 222.198 119.624 222.167 122.046L222.162 122.195L222.167 122.251C222.131 125.621 222.299 129.176 222.972 131.329V131.335H222.975C223.065 131.627 223.165 131.896 223.275 132.131L223.252 131.565L225.335 133.253L227.34 129.922L229.174 119.083L222.908 111.611Z" fill="#FE0CF4"/>
</svg>
